<svg width="60" height="60" viewBox="0 0 60 60" fill="none" xmlns="http://www.w3.org/2000/svg">
<g clip-path="url(#clip0_47_1542)">
<path d="M30 60C46.5685 60 60 46.5685 60 30C60 13.4315 46.5685 0 30 0C13.4315 0 0 13.4315 0 30C0 46.5685 13.4315 60 30 60Z" fill="#32BEAF"/>
<path d="M22.7983 24.6884C21.4442 25.0255 20.0617 25.3173 18.6736 25.4703C17.6 25.5893 16.158 25.6148 15.6141 24.4731C15.158 23.5184 15.5405 22.323 16.2147 21.5779C17.0334 20.6742 18.1807 20.1672 19.2827 19.7026C19.7869 19.4901 19.4697 18.7904 19.0277 18.7592C17.7614 18.6742 16.464 18.1247 15.7161 17.0623C14.9824 16.0227 14.8691 14.4844 15.6849 13.4533C16.3988 12.5496 17.6085 12.2352 18.6991 12.0963C19.7076 11.9689 20.6453 11.9859 21.6425 12.1672C26.5518 13.068 29.9144 17.6063 31.1212 22.2493C31.7614 24.7111 32.1099 27.5496 31.5461 30.0567C31.2827 31.2323 30.7473 32.6686 29.6311 33.289C28.3875 33.9802 27.3988 32.8612 26.9314 31.8017C25.7076 29.0284 26.1949 25.8074 27.2345 23.0737C28.1835 20.5836 29.4725 18.2125 31.0674 16.0737C31.9626 14.8725 32.9711 13.7479 34.0674 12.7281C35.1184 11.7507 36.3365 10.6091 37.7104 10.119C38.3592 9.88671 39.0787 9.83288 39.7104 10.1417C40.4555 10.5043 40.6368 11.238 40.6113 12.0114C40.5575 13.6289 39.9002 15.2238 38.8747 16.4646C38.4612 16.9689 39.0872 17.6034 39.5915 17.1813C40.4753 16.4391 41.9031 16.7394 42.5433 17.6544C43.2147 18.6204 43.0844 19.9207 42.4583 20.8669C41.7586 21.9264 40.566 22.6487 39.4583 23.2125C38.226 23.8357 36.8946 24.2266 35.5291 24.4193C34.8861 24.5099 35.1609 25.4873 35.7983 25.3966C37.5688 25.1445 39.2855 24.5468 40.8153 23.6176C42.1269 22.8244 43.4583 21.7422 43.8691 20.1983C44.2289 18.847 43.8578 17.2578 42.7104 16.391C41.5716 15.5298 39.9682 15.5468 38.8747 16.4646C39.1127 16.7026 39.3507 16.9405 39.5915 17.1813C40.6085 15.9462 41.3053 14.4873 41.5376 12.898C41.7501 11.4419 41.5773 9.87821 40.0844 9.20399C38.6991 8.57793 37.2119 9.08501 36.0136 9.87538C34.7161 10.7309 33.5291 11.7904 32.4498 12.9037C30.2459 15.1757 28.4668 17.8555 27.1382 20.7281C25.6651 23.915 24.7218 27.2521 25.5461 30.7564C25.8493 32.0482 26.4187 33.5156 27.6425 34.2012C28.9144 34.9179 30.3195 34.3201 31.1807 33.2635C33.1439 30.8584 32.9767 27.255 32.5716 24.3626C32.1609 21.4476 31.1694 18.5326 29.3932 16.1558C28.4668 14.915 27.3535 13.8527 26.0646 12.9944C24.9512 12.2521 23.7671 11.5751 22.4498 11.2975C20.1609 10.8131 17.1439 10.7139 15.294 12.3995C14.2374 13.3598 13.9031 14.8669 14.243 16.2267C14.5943 17.6318 15.6651 18.7224 16.9739 19.2918C17.6311 19.5779 18.3195 19.7252 19.0334 19.7734C18.9484 19.4589 18.8634 19.1445 18.7784 18.8301C17.4243 19.4023 16.0334 20.0765 15.1524 21.3003C14.4328 22.3003 14.1722 23.7224 14.6934 24.8669C15.2799 26.1587 16.6736 26.5779 17.9994 26.5354C19.6991 26.4788 21.4328 26.0737 23.0759 25.6657C23.6991 25.5071 23.43 24.5298 22.7983 24.6884Z" fill="white"/>
<path d="M30.7952 9.99434C30.7952 10.0397 30.7923 10.085 30.7895 10.1332C30.7895 10.153 30.7867 10.1728 30.7838 10.1926C30.7753 10.3031 30.7838 10.1728 30.7867 10.1728C30.7867 10.1728 30.7272 10.4249 30.7187 10.4504C30.7074 10.4873 30.6932 10.5213 30.6819 10.5553C30.6592 10.6232 30.7244 10.4759 30.6875 10.5383C30.679 10.5553 30.6705 10.5722 30.662 10.5892C30.6195 10.6714 30.5714 10.7507 30.5204 10.8272C30.5091 10.8414 30.4977 10.8555 30.4892 10.8725C30.5515 10.7819 30.5176 10.8357 30.5006 10.8555C30.4722 10.8867 30.4439 10.9207 30.4156 10.9519C30.3844 10.983 30.3561 11.0142 30.3221 11.0425C30.2966 11.0652 30.1776 11.153 30.2824 11.0793C30.2173 11.1247 30.1521 11.17 30.0813 11.2096C30.0445 11.2323 30.0048 11.2493 29.9651 11.2691C29.9538 11.2748 29.8972 11.3031 29.9566 11.2748C30.0246 11.2408 29.9283 11.2861 29.9113 11.2918C29.8292 11.323 29.7442 11.3456 29.6564 11.3626C29.6365 11.3655 29.6195 11.3683 29.5997 11.3739C29.5402 11.3881 29.6365 11.3654 29.6394 11.3711C29.6394 11.3683 29.4977 11.3824 29.4836 11.3853C29.3901 11.3881 29.2994 11.3853 29.2088 11.3768C29.1266 11.3711 29.2286 11.3711 29.2286 11.3796C29.2286 11.3796 29.1748 11.3711 29.1719 11.3683C29.121 11.3598 29.0728 11.3456 29.0246 11.3343C28.9821 11.323 28.9397 11.3088 28.9 11.2946C28.883 11.289 28.866 11.2805 28.8462 11.2748C28.7923 11.255 28.8802 11.289 28.8802 11.289C28.8037 11.2805 28.6989 11.1955 28.6365 11.1558C28.5997 11.1332 28.5657 11.1077 28.5289 11.0822C28.611 11.1417 28.5374 11.0878 28.5034 11.0567C28.4354 10.9943 28.3731 10.9292 28.3108 10.8584C28.3023 10.8499 28.2626 10.7989 28.3051 10.8527C28.3476 10.9065 28.2994 10.8442 28.2909 10.83C28.2654 10.7932 28.2428 10.7592 28.2201 10.7224C28.2003 10.6912 28.1833 10.6572 28.1663 10.6261C28.1465 10.5892 28.0813 10.4816 28.138 10.5779C28.0955 10.5071 28.0756 10.4051 28.0558 10.3286C28.0445 10.2861 28.0388 10.2408 28.0275 10.1983C28.0133 10.1417 28.0303 10.2351 28.0303 10.238C28.0246 10.2068 28.0246 10.1728 28.0218 10.1417C28.0161 10.0567 28.0161 9.97168 28.0218 9.8867C28.0218 9.86687 28.0445 9.73089 28.0303 9.79888C28.0133 9.8697 28.0331 9.79038 28.036 9.77055C28.0416 9.74505 28.0473 9.71956 28.053 9.69689C28.0728 9.61191 28.104 9.52976 28.1323 9.44477C28.1521 9.39095 28.1181 9.47876 28.1181 9.47876C28.121 9.46177 28.1436 9.42494 28.1493 9.41078C28.1719 9.36545 28.1946 9.32296 28.2201 9.28046C28.2399 9.2493 28.2598 9.21814 28.2796 9.18698C28.2938 9.16715 28.3079 9.14732 28.3221 9.12749C28.3193 9.13032 28.2626 9.19548 28.2994 9.15865C28.3646 9.0935 28.4212 9.01984 28.4892 8.95752C28.5062 8.94052 28.6025 8.8612 28.5516 8.90369C28.5006 8.94335 28.5997 8.8697 28.6195 8.85837C28.6989 8.80738 28.7838 8.77055 28.8632 8.72239C28.9113 8.69406 28.8292 8.73372 28.8292 8.73656C28.8433 8.72806 28.866 8.72239 28.883 8.71673C28.9255 8.70256 28.9651 8.6884 29.0076 8.67423C29.0501 8.6629 29.0926 8.65157 29.1351 8.64024C29.1549 8.63741 29.1719 8.63174 29.1918 8.62891C29.3136 8.60341 29.1181 8.63457 29.1918 8.62607C29.2824 8.61758 29.3731 8.61191 29.4666 8.61474C29.5119 8.61474 29.5572 8.62041 29.6025 8.62324C29.6167 8.62324 29.679 8.63741 29.611 8.62324C29.5317 8.60624 29.6535 8.63174 29.6564 8.63457C29.7555 8.6544 29.8518 8.68556 29.9453 8.71956C29.9566 8.72522 30.0133 8.75072 29.9538 8.72239C29.8915 8.69123 29.968 8.73089 29.9793 8.73656C30.0246 8.75922 30.0671 8.78188 30.1096 8.80738C30.1521 8.83287 30.1918 8.8612 30.2343 8.8867C30.2484 8.8952 30.3108 8.94619 30.2569 8.90086C30.2031 8.85837 30.2683 8.90936 30.2768 8.92069C30.3504 8.98585 30.4184 9.05384 30.4836 9.12749C30.4949 9.14165 30.5459 9.20398 30.5034 9.14732C30.4609 9.0935 30.5119 9.15865 30.5176 9.16998C30.5459 9.20964 30.5714 9.25214 30.5969 9.29463C30.6224 9.33712 30.645 9.38245 30.6677 9.42494C30.6762 9.4391 30.7102 9.51276 30.6819 9.45044C30.6507 9.38811 30.6875 9.4646 30.6904 9.47593C30.7244 9.57225 30.7527 9.66857 30.7725 9.76772C30.7725 9.77055 30.781 9.82437 30.7838 9.82437C30.7725 9.72522 30.7753 9.82437 30.7838 9.82437C30.7923 9.8782 30.7952 9.93485 30.7952 9.99434C30.798 10.2578 31.0275 10.5128 31.3023 10.5014C31.5742 10.4901 31.8122 10.2776 31.8093 9.99434C31.798 8.96885 31.1578 8.085 30.2031 7.73089C29.2938 7.39378 28.1889 7.69973 27.577 8.4476C26.9368 9.23231 26.8207 10.3485 27.3504 11.2266C27.8773 12.102 28.8972 12.5298 29.8943 12.3456C31.0048 12.1388 31.8008 11.1048 31.8122 9.99434C31.815 9.72806 31.577 9.47593 31.3051 9.48726C31.0275 9.50143 30.798 9.71106 30.7952 9.99434Z" fill="white"/>
<path d="M44.3793 54.966C43.7334 54.204 43.0875 53.442 42.4416 52.6799C41.1697 51.1785 39.6796 49.8754 38.0139 48.8329C36.1697 47.6771 34.113 46.8442 31.9827 46.3966C30.8297 46.153 29.6711 46.0595 28.4983 45.9745C27.2688 45.8839 26.0393 45.7706 24.8155 45.6261C22.8155 45.391 20.8212 45.0709 18.8552 44.6318C17.3906 44.3032 15.9374 43.9094 14.5238 43.4051C14.2376 43.3032 13.9544 43.1983 13.6739 43.085C13.5436 43.034 13.4105 42.9802 13.2801 42.9264C13.249 42.9122 13.2178 42.9009 13.1895 42.8867C13.2971 42.932 13.198 42.8896 13.1725 42.8811C13.1102 42.8527 13.045 42.8272 12.9827 42.7989C12.5408 42.6063 12.1045 42.3966 11.6796 42.17C11.334 41.9859 10.9969 41.7904 10.6654 41.5808C10.5294 41.493 10.3935 41.4023 10.2603 41.3088C10.1498 41.2323 10.0365 41.1162 9.91753 41.0567C9.96002 41.0907 10.045 41.1218 9.91753 41.0567C9.8892 41.034 9.86371 41.0142 9.83821 40.9915C9.79289 40.9547 9.74756 40.9179 9.70223 40.8782C9.62291 40.8102 9.54643 40.7422 9.46994 40.6714C9.34246 40.5553 9.21498 40.4335 9.11583 40.2918C8.96852 40.0794 8.86654 39.8499 8.81555 39.5949C8.80988 39.5666 8.79855 39.442 8.80705 39.5666C8.80422 39.5383 8.80138 39.51 8.79855 39.4816C8.79572 39.4448 8.79572 39.408 8.79572 39.3683C8.79572 39.3258 8.82405 39.2323 8.79289 39.3428C8.80138 39.3145 8.80705 39.2805 8.81272 39.2493C8.82121 39.2125 8.86654 39.1417 8.80988 39.238C8.82405 39.2125 8.84388 39.1842 8.85521 39.1558C8.87221 39.1162 8.83255 39.1842 8.82971 39.187C8.84671 39.17 8.86371 39.153 8.87787 39.136C8.93453 39.0709 8.83538 39.1445 8.8977 39.1219C8.91187 39.1162 9.01102 39.0652 8.96286 39.085C8.92036 39.102 9.02518 39.068 9.04784 39.0624C9.07051 39.0567 9.20365 39.0369 9.14133 39.0425C9.65974 38.9915 10.2065 39.1502 10.6966 39.306C11.7447 39.6374 12.7107 40.1728 13.7192 40.6006C14.13 40.7734 14.5493 40.9434 14.9912 41.0142C15.215 41.051 15.4444 40.9575 15.5096 40.7196C15.5634 40.5185 15.4416 40.2352 15.215 40.2012C14.7872 40.1332 14.3538 39.9632 13.9799 39.8017C13.4756 39.5808 12.9827 39.3372 12.4813 39.1134C11.9345 38.8669 11.3793 38.6346 10.8071 38.459C10.2745 38.2975 9.67674 38.1473 9.11866 38.204C8.69374 38.2465 8.27164 38.4221 8.07901 38.8272C7.9147 39.1728 7.93453 39.5666 8.02518 39.9292C8.17249 40.5043 8.5351 40.9717 8.97136 41.3598C9.42745 41.7649 9.9317 42.1219 10.4529 42.442C11.2716 42.9434 12.1413 43.357 13.0252 43.7253C14.2716 44.2465 15.5634 44.6601 16.8694 45.0114C18.6654 45.493 20.4926 45.8499 22.3283 46.1332C23.4841 46.3088 24.6456 46.4561 25.8099 46.5779C27.0847 46.7111 28.3651 46.7904 29.6427 46.8981C31.8099 47.0794 33.9544 47.6743 35.909 48.6318C37.8779 49.5949 39.6597 50.9094 41.1583 52.5071C41.9855 53.391 42.7447 54.3456 43.5294 55.2692C43.6144 55.3683 43.6966 55.4675 43.7816 55.5666C43.9289 55.7394 44.2263 55.7196 44.3793 55.5666C44.5521 55.3881 44.5266 55.1388 44.3793 54.966Z" fill="white"/>
<path d="M16.4021 34.8612C16.4248 34.8499 16.4475 34.8414 16.4673 34.8301C16.5183 34.8046 16.3908 34.8584 16.4446 34.8386C16.4843 34.8244 16.524 34.8074 16.5636 34.7932C16.6486 34.7621 16.7336 34.7366 16.8186 34.7167C16.8951 34.6969 16.9715 34.6799 17.0509 34.6686C17.0735 34.6657 17.0962 34.6629 17.1189 34.6572C17.1812 34.6459 17.0084 34.6686 17.1047 34.6601C17.15 34.6572 17.1982 34.6516 17.2435 34.6459C17.4106 34.6346 17.5806 34.6346 17.7477 34.6459C17.7902 34.6488 17.8327 34.6516 17.8752 34.6572C17.9064 34.6601 18.0452 34.6827 17.9177 34.6629C18.0027 34.6771 18.0877 34.6912 18.1727 34.7082C18.3511 34.7451 18.5268 34.7904 18.6996 34.8471C18.7846 34.8754 18.8696 34.9037 18.9545 34.9349C18.997 34.9519 19.0395 34.966 19.082 34.983C19.1104 34.9944 19.2548 35.0539 19.15 35.0085C19.4985 35.1587 19.8327 35.3315 20.1585 35.5241C20.4871 35.7196 20.8016 35.9292 21.1104 36.1558C21.184 36.2097 21.2577 36.2663 21.3313 36.3201C21.3625 36.3428 21.439 36.4051 21.3681 36.3456C21.4078 36.3768 21.4475 36.408 21.4871 36.4391C21.6288 36.5524 21.7704 36.6686 21.9092 36.7847C22.3681 37.1757 22.8101 37.5893 23.2293 38.0199C23.4333 38.2267 23.6344 38.4391 23.8214 38.6601C23.9687 38.8329 24.2662 38.8131 24.4191 38.6601C24.5919 38.4873 24.5664 38.238 24.4191 38.0623C23.8752 37.4221 23.2605 36.8357 22.6259 36.289C21.4503 35.2748 20.0877 34.2918 18.5523 33.9235C17.6798 33.7139 16.7874 33.7479 15.9687 34.1275C15.7619 34.2238 15.7109 34.5213 15.8186 34.7054C15.9489 34.9235 16.1953 34.9575 16.4021 34.8612Z" fill="white"/>
<path d="M12.3481 33.5213C11.7277 32.9434 10.9911 32.4675 10.1696 32.238C9.59452 32.0765 8.9288 32.0255 8.37922 32.306C7.88347 32.5581 7.67667 33.1218 7.84665 33.6459C7.99962 34.1162 8.34806 34.4958 8.67384 34.8556C9.40189 35.6601 10.1923 36.408 10.9855 37.1502C11.8211 37.932 12.6738 38.7026 13.5294 39.4618C13.9911 39.8697 14.45 40.2833 14.9203 40.6827C14.9288 40.6884 14.9345 40.6941 14.943 40.6997C15.1158 40.8499 15.3707 40.8697 15.5407 40.6997C15.6937 40.5468 15.7135 40.2522 15.5407 40.102C15.1838 39.7961 14.8296 39.4844 14.4784 39.1728C13.6908 38.4788 12.909 37.7762 12.1384 37.0652C11.3282 36.3173 10.5209 35.5609 9.75316 34.7677C9.46704 34.4731 9.18376 34.1728 8.92597 33.8527C8.90613 33.8272 8.88064 33.7791 8.85231 33.7621C8.88914 33.7847 8.91463 33.8499 8.86647 33.7791C8.84098 33.7422 8.81548 33.7082 8.79282 33.6714C8.75883 33.6176 8.72483 33.5609 8.6965 33.5014C8.688 33.4873 8.65401 33.4023 8.67667 33.4646C8.70217 33.5269 8.66251 33.4221 8.65684 33.4051C8.64834 33.3825 8.64268 33.3598 8.63701 33.3343C8.63135 33.3145 8.62568 33.2352 8.62851 33.3116C8.63418 33.3938 8.62851 33.3003 8.62851 33.2805C8.62851 33.2578 8.62851 33.2323 8.62851 33.2097C8.62568 33.1247 8.60302 33.2975 8.62568 33.2323C8.63135 33.2153 8.63418 33.1955 8.63985 33.1757C8.65684 33.0963 8.64551 33.2012 8.62285 33.2068C8.62851 33.2068 8.65401 33.1473 8.65684 33.1417C8.65968 33.136 8.69084 33.0992 8.688 33.0963C8.6965 33.119 8.61152 33.1785 8.67667 33.1162C8.69084 33.102 8.705 33.0907 8.71917 33.0765C8.77866 33.017 8.63701 33.1247 8.7135 33.0822C8.75033 33.0624 8.78715 33.0397 8.82398 33.0199C8.90613 32.9745 8.74749 33.0425 8.81548 33.0227C8.84098 33.0142 8.86647 33.0057 8.89197 32.9972C8.94296 32.983 8.99395 32.9717 9.04778 32.9604C9.12143 32.9462 9.06761 32.9377 9.03928 32.9604C9.05628 32.9462 9.12427 32.9519 9.14693 32.9519C9.28007 32.9434 9.41322 32.949 9.54636 32.9632C9.56336 32.966 9.57752 32.966 9.59452 32.9689C9.59169 32.9689 9.5152 32.9547 9.56336 32.966C9.59452 32.9717 9.62851 32.9774 9.65968 32.983C9.739 32.9972 9.81832 33.017 9.8948 33.0369C10.0563 33.0794 10.2149 33.1332 10.3707 33.1955C10.3056 33.17 10.3962 33.2068 10.4161 33.2153C10.4585 33.2352 10.501 33.255 10.5464 33.2748C10.6342 33.3173 10.722 33.3626 10.807 33.4136C10.977 33.5099 11.1384 33.6148 11.2971 33.7309C11.4387 33.8357 11.6002 33.9717 11.7532 34.1162C11.9203 34.272 12.1838 34.2805 12.3509 34.1162C12.5067 33.9604 12.5152 33.6771 12.3481 33.5213Z" fill="white"/>
<path d="M11.7531 34.1162C12.467 34.7394 13.1837 35.3626 13.8976 35.983C15.0279 36.966 16.1582 37.9519 17.2885 38.9349C17.5463 39.1615 17.807 39.3853 18.0648 39.6119C18.2376 39.7621 18.4925 39.7819 18.6625 39.6119C18.8155 39.459 18.8353 39.1643 18.6625 39.0142C17.9486 38.391 17.2319 37.7677 16.518 37.1473C15.3877 36.1643 14.2574 35.1785 13.1271 34.1955C12.8693 33.9689 12.6087 33.7451 12.3509 33.5184C12.1781 33.3683 11.9231 33.3485 11.7531 33.5184C11.6002 33.6742 11.5803 33.966 11.7531 34.1162Z" fill="white"/>
<path d="M16.4869 34.1983C15.671 33.5581 14.739 33.0369 13.688 32.9604C13.1299 32.9207 12.552 33.034 12.0619 33.306C11.9514 33.3655 11.8466 33.4391 11.7531 33.5213C11.5803 33.6714 11.6002 33.966 11.7531 34.119C11.9231 34.289 12.1781 34.2691 12.3509 34.119C12.4104 34.068 12.2376 34.1983 12.314 34.1473C12.3537 34.119 12.3934 34.0935 12.4359 34.068C12.5038 34.0284 12.5747 33.9944 12.6455 33.9604C12.7276 33.9207 12.569 33.9887 12.62 33.9689C12.6427 33.9604 12.6653 33.9519 12.6852 33.9434C12.7333 33.9264 12.7815 33.9094 12.8296 33.8952C12.8835 33.8782 12.9373 33.864 12.9911 33.8527C13.0336 33.8442 13.1554 33.7961 13.1922 33.8159C13.1922 33.8159 13.0789 33.8272 13.1526 33.8216C13.1696 33.8187 13.1866 33.8187 13.2007 33.8159C13.2347 33.8131 13.2687 33.8102 13.3027 33.8074C13.3792 33.8017 13.4557 33.8017 13.5293 33.8017C13.6002 33.8017 13.6738 33.8074 13.7446 33.8131C13.7843 33.8159 13.8806 33.8301 13.7843 33.8159C13.8381 33.8244 13.8891 33.8329 13.9401 33.8414C14.1299 33.8782 14.3169 33.9292 14.4982 33.9944C14.552 34.0142 14.6058 34.034 14.6597 34.0567C14.7361 34.0878 14.6852 34.068 14.671 34.0623C14.7078 34.0793 14.7475 34.0963 14.7843 34.1133C14.9033 34.17 15.0194 34.2295 15.1356 34.2946C15.399 34.442 15.6512 34.6119 15.8891 34.7989C16.0676 34.9405 16.3112 34.9745 16.4869 34.7989C16.6342 34.6488 16.6682 34.34 16.4869 34.1983Z" fill="white"/>
<path d="M21.4413 38.4759C20.8832 37.9944 20.328 37.5156 19.7699 37.034C18.8804 36.2663 17.9937 35.4986 17.1042 34.7337C16.8974 34.5553 16.6934 34.3796 16.4866 34.2012C16.3138 34.051 16.0589 34.0312 15.8889 34.2012C15.7359 34.3541 15.7161 34.6487 15.8889 34.7989C16.447 35.2805 17.0022 35.7592 17.5603 36.2408C18.4498 37.0085 19.3365 37.7762 20.226 38.5411C20.4328 38.7196 20.6368 38.8952 20.8436 39.0737C21.0164 39.2238 21.2713 39.2436 21.4413 39.0737C21.5943 38.9179 21.6141 38.6232 21.4413 38.4759Z" fill="white"/>
<path d="M52.0899 48.4334C50.4469 46.6856 48.7301 45.0028 46.9228 43.4249C44.9851 41.7337 42.9284 40.1162 40.6678 38.8754C39.6961 38.3428 38.6735 37.8754 37.6027 37.5836C36.6112 37.3145 35.5743 37.2521 34.5517 37.2181C32.1919 37.1388 29.8236 37.3088 27.478 37.5609C25.2004 37.8045 22.9284 38.136 20.6706 38.5241C19.2259 38.7734 17.784 39.0425 16.3505 39.3485C16.2004 39.3796 16.0474 39.4136 15.8973 39.4448C15.4837 39.5383 15.1409 39.7677 14.9001 40.1162C14.359 40.898 14.5233 42.1615 15.4468 42.5779C15.8973 42.7791 16.4695 42.7762 16.9568 42.8215C17.6593 42.8895 18.3619 42.949 19.0644 43.0085C20.8519 43.1615 22.6395 43.3031 24.427 43.4448C25.6452 43.5411 26.8661 43.6346 28.0842 43.7281C28.1466 43.7337 28.2061 43.7366 28.2684 43.7422C28.495 43.7592 28.6905 43.5354 28.6905 43.3201C28.6905 43.0765 28.4978 42.915 28.2684 42.898C27.4185 42.8329 26.5658 42.7677 25.716 42.6997C23.9908 42.5638 22.2627 42.4278 20.5375 42.2861C19.1522 42.1728 17.7641 42.0652 16.3789 41.9179C16.291 41.9094 16.2032 41.898 16.1154 41.8895C16.0842 41.8867 16.0531 41.881 16.0248 41.8782C15.9454 41.8697 16.1409 41.9009 16.0842 41.8867C16.0446 41.8782 16.0049 41.8754 15.9653 41.8669C15.9114 41.8555 15.8576 41.8385 15.8066 41.8187C15.8859 41.847 15.7783 41.8017 15.75 41.7876C15.7301 41.7762 15.7131 41.7621 15.6933 41.7507C15.6027 41.6997 15.733 41.7876 15.6876 41.7479C15.648 41.7111 15.6112 41.6742 15.5743 41.6346C15.5347 41.5921 15.614 41.6941 15.5828 41.6431C15.5687 41.6204 15.5545 41.5977 15.5403 41.5751C15.5177 41.5383 15.5007 41.5014 15.4837 41.4618C15.529 41.5581 15.4752 41.4249 15.4667 41.3966C15.4582 41.3711 15.4327 41.2266 15.4384 41.2776C15.444 41.3315 15.4327 41.1898 15.4327 41.17C15.4327 41.1247 15.4355 41.0822 15.4355 41.0368C15.4355 41.0142 15.4384 40.9915 15.4412 40.9717C15.4299 41.068 15.4355 41.0057 15.4412 40.9859C15.4553 40.932 15.4638 40.8782 15.4808 40.8244C15.4893 40.7989 15.5007 40.7734 15.5092 40.7451C15.529 40.6856 15.478 40.8074 15.5035 40.7536C15.5262 40.7082 15.546 40.6657 15.5715 40.6204C15.5942 40.5836 15.6197 40.5468 15.6451 40.5099C15.5857 40.5893 15.6876 40.4703 15.7103 40.4476C15.7273 40.4334 15.7443 40.4193 15.7585 40.4023C15.8321 40.3286 15.7103 40.4306 15.7641 40.3966C15.8066 40.3683 15.8519 40.3456 15.8944 40.3173C15.9086 40.3088 15.9681 40.2861 15.8888 40.3173C15.9114 40.3088 15.9313 40.3003 15.9539 40.2946C15.9936 40.2833 16.0304 40.272 16.0701 40.2635C16.1239 40.2521 16.1749 40.2408 16.2287 40.2295C17.4185 39.9717 18.614 39.7394 19.8095 39.5241C21.8944 39.1473 24.0134 38.813 26.0672 38.5609C28.393 38.2748 30.7386 38.0623 33.0842 38.0397C34.1352 38.0312 35.1862 38.0595 36.2316 38.1672C36.2882 38.1728 36.3449 38.1785 36.4044 38.187C36.3392 38.1785 36.4723 38.1955 36.4044 38.187C36.4355 38.1927 36.4667 38.1955 36.5007 38.2012C36.6168 38.2181 36.7301 38.2408 36.8463 38.2635C37.0842 38.3116 37.3194 38.3711 37.5517 38.4391C38.0389 38.5808 38.546 38.7762 38.9568 38.9575C41.1551 39.9377 43.1466 41.3796 44.9993 42.8952C46.9058 44.4561 48.7046 46.1473 50.4242 47.9122C50.7811 48.2776 51.1381 48.6487 51.4893 49.0227C51.8661 49.4249 52.4639 48.8272 52.0899 48.4334Z" fill="white"/>
</g>
<defs>
<clipPath id="clip0_47_1542">
<rect width="60" height="60" fill="white"/>
</clipPath>
</defs>
</svg>
