<svg width="140" height="35" viewBox="0 0 140 35" fill="none" xmlns="http://www.w3.org/2000/svg">
<g clip-path="url(#clip0_1_429)">
<path fill-rule="evenodd" clip-rule="evenodd" d="M12.4476 0.00106859C9.8503 0.00106859 6.77084 2.49813 4.23075 6.69618C1.58328 11.0439 0.00390625 16.4263 0.00390625 21.1004C0.00390625 27.9431 3.84391 34.8437 12.4484 34.8437C21.0425 34.8437 24.8928 27.9431 24.8928 21.1004C24.8928 16.4263 23.3141 11.0439 20.6795 6.69618C18.1156 2.49813 15.0364 0.00106859 12.4476 0.00106859ZM79.6444 10.2674H88.3556V32.9778H97.6889V10.2674H106.396V1.86667H79.6444V10.2663V10.2674ZM126.308 10.2674H139.996V1.86667H126.308C113.732 1.86667 107.015 8.11946 107.015 17.4212C107.015 26.7228 113.732 32.9778 126.308 32.9778H139.996V24.5774H126.308C120.487 24.5774 116.661 22.4971 116.661 17.4222C116.661 12.3474 120.487 10.2674 126.308 10.2674ZM60.6613 1.86667L55.6871 20.4356L50.7129 1.86667H34.2258V32.9778H43.5556V7.67289L50.336 32.9778H61.0382L67.8222 7.6576V32.9778H77.1556V1.86667H60.6613Z" fill="#E30613"/>
</g>
<defs>
<clipPath id="clip0_1_429">
<rect width="140" height="34.8444" fill="white"/>
</clipPath>
</defs>
</svg>
