<svg width="54" height="54" viewBox="0 0 54 54" fill="none" xmlns="http://www.w3.org/2000/svg">
<g clip-path="url(#clip0_33_260)">
<path d="M53.5 27C53.5 41.6355 41.6355 53.5 27 53.5C12.3645 53.5 0.5 41.6355 0.5 27C0.5 12.3645 12.3645 0.5 27 0.5C41.6355 0.5 53.5 12.3645 53.5 27Z" stroke="white"/>
<path d="M20.5188 22.2195C19.3001 22.5229 18.0559 22.7855 16.8066 22.9232C15.8404 23.0303 14.5426 23.0533 14.0531 22.0258C13.6426 21.1666 13.9868 20.0906 14.5936 19.4201C15.3304 18.6068 16.363 18.1504 17.3548 17.7323C17.8086 17.5411 17.5231 16.9113 17.1253 16.8833C15.9857 16.8068 14.818 16.3122 14.1449 15.3561C13.4846 14.4204 13.3826 13.036 14.1168 12.1079C14.7593 11.2946 15.848 11.0116 16.8296 10.8867C17.7372 10.772 18.5812 10.7872 19.4786 10.9504C23.897 11.7612 26.9234 15.8456 28.0095 20.0244C28.5857 22.2399 28.8993 24.7946 28.3919 27.051C28.1548 28.1091 27.6729 29.4017 26.6684 29.9601C25.5491 30.5821 24.6593 29.5751 24.2387 28.6215C23.1372 26.1255 23.5758 23.2266 24.5115 20.7663C25.3656 18.5252 26.5256 16.3912 27.961 14.4663C28.7667 13.3853 29.6744 12.3731 30.661 11.4552C31.6069 10.5756 32.7032 9.54816 33.9398 9.10708C34.5236 8.89801 35.1712 8.84957 35.7398 9.12747C36.4103 9.45382 36.5735 10.1142 36.5506 10.8102C36.5021 12.266 35.9106 13.7014 34.9877 14.8181C34.6154 15.272 35.1789 15.8431 35.6327 15.4632C36.4282 14.7952 37.7132 15.0654 38.2894 15.8889C38.8936 16.7584 38.7763 17.9286 38.2129 18.7802C37.5831 19.7337 36.5098 20.3838 35.5129 20.8912C34.4038 21.4521 33.2055 21.804 31.9766 21.9773C31.3979 22.0589 31.6452 22.9385 32.2188 22.8569C33.8123 22.63 35.3574 22.0921 36.7341 21.2558C37.9146 20.5419 39.1129 19.568 39.4826 18.1785C39.8064 16.9623 39.4724 15.532 38.4398 14.7518C37.4149 13.9768 35.9718 13.9921 34.9877 14.8181C35.2018 15.0323 35.416 15.2465 35.6327 15.4632C36.548 14.3516 37.1752 13.0385 37.3843 11.6082C37.5755 10.2977 37.42 8.89037 36.0763 8.28357C34.8296 7.72011 33.4911 8.17648 32.4126 8.88782C31.2449 9.65779 30.1766 10.6113 29.2052 11.6133C27.2217 13.6581 25.6205 16.07 24.4248 18.6552C23.099 21.5235 22.25 24.5269 22.9919 27.6807C23.2647 28.8433 23.7772 30.164 24.8786 30.781C26.0234 31.4261 27.2879 30.8881 28.063 29.9371C29.8299 27.7725 29.6795 24.5295 29.3149 21.9263C28.9452 19.3028 28.0528 16.6793 26.4542 14.5402C25.6205 13.4235 24.6185 12.4674 23.4585 11.6949C22.4565 11.0269 21.3908 10.4176 20.2052 10.1677C18.1452 9.73172 15.4299 9.64249 13.765 11.1595C12.814 12.0238 12.5132 13.3802 12.8191 14.604C13.1353 15.8686 14.099 16.8501 15.2769 17.3626C15.8684 17.6201 16.488 17.7527 17.1304 17.796C17.054 17.513 16.9775 17.23 16.901 16.947C15.6823 17.462 14.4304 18.0688 13.6375 19.1703C12.9899 20.0703 12.7554 21.3501 13.2245 22.3802C13.7523 23.5428 15.0066 23.9201 16.1998 23.8819C17.7296 23.8309 19.2899 23.4663 20.7687 23.0991C21.3296 22.9564 21.0874 22.0768 20.5188 22.2195Z" fill="white"/>
<path d="M27.717 8.99484C27.717 9.03563 27.7145 9.07642 27.7119 9.11977C27.7119 9.13761 27.7094 9.15546 27.7068 9.17331C27.6992 9.27274 27.7068 9.15546 27.7094 9.15546C27.7094 9.15546 27.6558 9.38237 27.6482 9.40532C27.638 9.43846 27.6252 9.46906 27.615 9.49965C27.5946 9.56084 27.6533 9.42827 27.6201 9.48436C27.6125 9.49965 27.6048 9.51495 27.5972 9.53025C27.559 9.60419 27.5156 9.67557 27.4697 9.74441C27.4595 9.75716 27.4493 9.76991 27.4417 9.78521C27.4978 9.70362 27.4672 9.75206 27.4519 9.76991C27.4264 9.79795 27.4009 9.82855 27.3754 9.85659C27.3473 9.88464 27.3218 9.91268 27.2912 9.93818C27.2683 9.95858 27.1612 10.0376 27.2556 9.97133C27.1969 10.0121 27.1383 10.0529 27.0745 10.0886C27.0414 10.109 27.0057 10.1243 26.97 10.1421C26.9598 10.1472 26.9088 10.1727 26.9624 10.1472C27.0235 10.1167 26.9369 10.1574 26.9216 10.1625C26.8476 10.1906 26.7711 10.211 26.6921 10.2263C26.6743 10.2288 26.659 10.2314 26.6411 10.2365C26.5876 10.2492 26.6742 10.2288 26.6768 10.2339C26.6768 10.2314 26.5493 10.2441 26.5366 10.2467C26.4524 10.2492 26.3709 10.2467 26.2893 10.239C26.2153 10.2339 26.3071 10.2339 26.3071 10.2416C26.3071 10.2416 26.2587 10.2339 26.2561 10.2314C26.2102 10.2237 26.1669 10.211 26.1235 10.2008C26.0853 10.1906 26.0471 10.1778 26.0114 10.1651C25.9961 10.16 25.9808 10.1523 25.9629 10.1472C25.9145 10.1294 25.9935 10.16 25.9935 10.16C25.9247 10.1523 25.8303 10.0759 25.7742 10.0402C25.7411 10.0198 25.7105 9.99682 25.6774 9.97387C25.7513 10.0274 25.685 9.97897 25.6544 9.95093C25.5932 9.89484 25.5371 9.8362 25.481 9.77246C25.4734 9.76481 25.4377 9.71892 25.4759 9.76736C25.5142 9.8158 25.4709 9.75971 25.4632 9.74696C25.4403 9.71382 25.4199 9.68322 25.3995 9.65008C25.3816 9.62203 25.3663 9.59144 25.351 9.56339C25.3332 9.53025 25.2745 9.43336 25.3255 9.52005C25.2873 9.45631 25.2694 9.36453 25.2516 9.29569C25.2414 9.25744 25.2363 9.21665 25.2261 9.17841C25.2133 9.12742 25.2286 9.21155 25.2286 9.2141C25.2235 9.18606 25.2235 9.15546 25.221 9.12742C25.2159 9.05093 25.2159 8.97444 25.221 8.89795C25.221 8.88011 25.2414 8.75773 25.2286 8.81892C25.2133 8.88266 25.2312 8.81127 25.2337 8.79342C25.2388 8.77048 25.2439 8.74753 25.249 8.72713C25.2669 8.65065 25.2949 8.57671 25.3204 8.50022C25.3383 8.45178 25.3077 8.53081 25.3077 8.53081C25.3102 8.51552 25.3306 8.48237 25.3357 8.46963C25.3561 8.42883 25.3765 8.39059 25.3995 8.35234C25.4173 8.3243 25.4352 8.29625 25.453 8.26821C25.4658 8.25036 25.4785 8.23252 25.4912 8.21467C25.4887 8.21722 25.4377 8.27586 25.4709 8.24271C25.5295 8.18407 25.5805 8.11778 25.6417 8.06169C25.657 8.0464 25.7437 7.97501 25.6978 8.01325C25.6519 8.04895 25.7411 7.98266 25.759 7.97246C25.8303 7.92657 25.9068 7.89342 25.9782 7.85008C26.0216 7.82458 25.9476 7.86028 25.9476 7.86283C25.9604 7.85518 25.9808 7.85008 25.9961 7.84498C26.0343 7.83223 26.07 7.81948 26.1082 7.80674C26.1465 7.79654 26.1847 7.78634 26.223 7.77614C26.2408 7.77359 26.2561 7.76849 26.274 7.76594C26.3836 7.743 26.2077 7.77104 26.274 7.76339C26.3556 7.75574 26.4371 7.75065 26.5213 7.75319C26.5621 7.75319 26.6029 7.75829 26.6437 7.76084C26.6564 7.76084 26.7125 7.77359 26.6513 7.76084C26.5799 7.74555 26.6895 7.76849 26.6921 7.77104C26.7813 7.78889 26.868 7.81693 26.9522 7.84753C26.9624 7.85263 27.0133 7.87557 26.9598 7.85008C26.9037 7.82203 26.9726 7.85773 26.9827 7.86283C27.0235 7.88322 27.0618 7.90362 27.1 7.92657C27.1383 7.94951 27.174 7.97501 27.2122 7.99795C27.225 8.0056 27.281 8.0515 27.2326 8.0107C27.1842 7.97246 27.2428 8.01835 27.2505 8.02855C27.3167 8.08719 27.3779 8.14838 27.4366 8.21467C27.4468 8.22742 27.4927 8.28351 27.4544 8.23252C27.4162 8.18407 27.4621 8.24271 27.4672 8.25291C27.4927 8.28861 27.5156 8.32685 27.5386 8.36509C27.5615 8.40334 27.5819 8.44413 27.6023 8.48237C27.6099 8.49512 27.6405 8.56141 27.615 8.50532C27.587 8.44923 27.6201 8.51807 27.6227 8.52827C27.6533 8.61495 27.6788 8.70164 27.6966 8.79087C27.6966 8.79342 27.7043 8.84186 27.7068 8.84186C27.6966 8.75263 27.6992 8.84186 27.7068 8.84186C27.7145 8.89031 27.717 8.9413 27.717 8.99484C27.7196 9.23195 27.9261 9.46141 28.1734 9.45121C28.4182 9.44101 28.6323 9.24979 28.6298 8.99484C28.6196 8.07189 28.0434 7.27642 27.1842 6.95773C26.3658 6.65433 25.3714 6.92968 24.8207 7.60277C24.2445 8.309 24.14 9.31353 24.6167 10.1039C25.091 10.8917 26.0088 11.2767 26.9063 11.111C27.9057 10.9249 28.6221 9.99427 28.6323 8.99484C28.6349 8.75518 28.4207 8.52827 28.176 8.53846C27.9261 8.55121 27.7196 8.73988 27.717 8.99484Z" fill="white"/>
<path d="M39.942 49.4694C39.3607 48.7835 38.7794 48.0977 38.1981 47.4119C37.0534 46.0606 35.7123 44.8878 34.2131 43.9495C32.5534 42.9093 30.7024 42.1597 28.7851 41.7569C27.7474 41.5376 26.7046 41.4535 25.6491 41.377C24.5426 41.2954 23.4361 41.1935 22.3347 41.0634C20.5347 40.8518 18.7398 40.5637 16.9704 40.1685C15.6522 39.8728 14.3443 39.5184 13.0721 39.0646C12.8146 38.9728 12.5596 38.8784 12.3072 38.7765C12.1899 38.7306 12.0701 38.6821 11.9528 38.6337C11.9248 38.6209 11.8967 38.6107 11.8712 38.598C11.9681 38.6388 11.8789 38.6005 11.8559 38.5929C11.7998 38.5674 11.7412 38.5444 11.6851 38.519C11.2874 38.3456 10.8947 38.1569 10.5123 37.9529C10.2012 37.7872 9.89785 37.6113 9.59955 37.4226C9.47717 37.3436 9.35479 37.262 9.23496 37.1779C9.13553 37.109 9.03354 37.0045 8.92646 36.951C8.96471 36.9816 9.04119 37.0096 8.92646 36.951C8.90097 36.9306 8.87802 36.9127 8.85507 36.8923C8.81428 36.8592 8.77349 36.826 8.73269 36.7903C8.66131 36.7291 8.59247 36.668 8.52363 36.6042C8.4089 36.4997 8.29417 36.3901 8.20493 36.2626C8.07235 36.0714 7.98057 35.8648 7.93468 35.6354C7.92958 35.6099 7.91938 35.4977 7.92703 35.6099C7.92448 35.5844 7.92193 35.5589 7.91938 35.5334C7.91683 35.5003 7.91683 35.4671 7.91683 35.4314C7.91683 35.3932 7.94233 35.309 7.91428 35.4085C7.92193 35.383 7.92703 35.3524 7.93213 35.3243C7.93978 35.2912 7.98057 35.2274 7.92958 35.3141C7.94233 35.2912 7.96017 35.2657 7.97037 35.2402C7.98567 35.2045 7.94998 35.2657 7.94743 35.2682C7.96272 35.2529 7.97802 35.2376 7.99077 35.2223C8.04176 35.1637 7.95252 35.23 8.00862 35.2096C8.02136 35.2045 8.1106 35.1586 8.06726 35.1765C8.02901 35.1918 8.12335 35.1612 8.14374 35.1561C8.16414 35.151 8.28397 35.1331 8.22788 35.1382C8.69445 35.0923 9.18652 35.2351 9.62759 35.3753C10.5709 35.6736 11.4403 36.1555 12.348 36.5405C12.7177 36.696 13.095 36.849 13.4928 36.9127C13.6942 36.9459 13.9007 36.8617 13.9593 36.6476C14.0078 36.4665 13.8981 36.2116 13.6942 36.181C13.3092 36.1198 12.9191 35.9668 12.5826 35.8215C12.1287 35.6226 11.6851 35.4034 11.2338 35.202C10.7418 34.9801 10.242 34.7711 9.72703 34.613C9.24771 34.4677 8.70975 34.3325 8.20748 34.3835C7.82505 34.4218 7.44516 34.5799 7.27179 34.9444C7.12391 35.2555 7.14176 35.6099 7.22335 35.9362C7.35592 36.4538 7.68227 36.8745 8.0749 37.2238C8.48539 37.5884 8.93921 37.9096 9.40833 38.1977C10.1452 38.649 10.9279 39.0212 11.7233 39.3527C12.8452 39.8218 14.0078 40.194 15.1831 40.5102C16.7996 40.9436 18.444 41.2648 20.0962 41.5198C21.1364 41.6779 22.1817 41.8105 23.2296 41.9201C24.3769 42.0399 25.5293 42.1113 26.6792 42.2082C28.6296 42.3714 30.5596 42.9068 32.3188 43.7685C34.0908 44.6354 35.6944 45.8184 37.0432 47.2563C37.7876 48.0518 38.4709 48.911 39.1772 49.7422C39.2537 49.8314 39.3276 49.9206 39.4041 50.0099C39.5367 50.1654 39.8044 50.1476 39.942 50.0099C40.0976 49.8493 40.0746 49.6249 39.942 49.4694Z" fill="white"/>
<path d="M14.7621 31.3752C14.7825 31.365 14.8029 31.3574 14.8208 31.3472C14.8667 31.3242 14.7519 31.3727 14.8004 31.3548C14.8361 31.3421 14.8718 31.3268 14.9074 31.314C14.9839 31.286 15.0604 31.263 15.1369 31.2452C15.2057 31.2273 15.2746 31.212 15.346 31.2018C15.3664 31.1993 15.3868 31.1967 15.4072 31.1916C15.4633 31.1814 15.3077 31.2018 15.3944 31.1942C15.4352 31.1916 15.4785 31.1865 15.5193 31.1814C15.6698 31.1712 15.8227 31.1712 15.9732 31.1814C16.0114 31.184 16.0497 31.1865 16.0879 31.1916C16.1159 31.1942 16.2409 31.2146 16.1261 31.1967C16.2026 31.2095 16.2791 31.2222 16.3556 31.2375C16.5162 31.2707 16.6743 31.3115 16.8298 31.3625C16.9063 31.388 16.9828 31.4135 17.0593 31.4415C17.0975 31.4568 17.1358 31.4695 17.174 31.4848C17.1995 31.495 17.3295 31.5486 17.2352 31.5078C17.5488 31.6429 17.8497 31.7984 18.1429 31.9718C18.4386 32.1477 18.7216 32.3364 18.9995 32.5404C19.0658 32.5888 19.1321 32.6398 19.1984 32.6882C19.2264 32.7086 19.2953 32.7647 19.2315 32.7112C19.2672 32.7392 19.3029 32.7673 19.3386 32.7953C19.4661 32.8973 19.5936 33.0018 19.7185 33.1064C20.1315 33.4582 20.5293 33.8305 20.9066 34.218C21.0902 34.4041 21.2712 34.5953 21.4395 34.7942C21.572 34.9497 21.8397 34.9319 21.9774 34.7942C22.1329 34.6387 22.11 34.4143 21.9774 34.2562C21.4879 33.68 20.9346 33.1523 20.3635 32.6602C19.3055 31.7475 18.0791 30.8627 16.6972 30.5313C15.912 30.3426 15.1089 30.3732 14.372 30.7149C14.1859 30.8016 14.14 31.0693 14.2369 31.235C14.3542 31.4313 14.576 31.4619 14.7621 31.3752Z" fill="white"/>
<path d="M11.1137 30.1691C10.5554 29.649 9.8925 29.2206 9.15312 29.0141C8.63556 28.8688 8.03641 28.8229 7.54179 29.0753C7.09561 29.3022 6.90949 29.8096 7.06247 30.2813C7.20015 30.7045 7.51374 31.0461 7.80694 31.3699C8.46219 32.094 9.17352 32.7671 9.8874 33.4351C10.6395 34.1388 11.4069 34.8322 12.1769 35.5155C12.5925 35.8827 13.0055 36.2549 13.4288 36.6144C13.4364 36.6195 13.4415 36.6246 13.4492 36.6297C13.6047 36.7648 13.8341 36.7827 13.9871 36.6297C14.1248 36.492 14.1426 36.2269 13.9871 36.0917C13.6659 35.8164 13.3472 35.5359 13.031 35.2555C12.3222 34.6308 11.6186 33.9985 10.9251 33.3586C10.1959 32.6855 9.46927 32.0048 8.77833 31.2909C8.52083 31.0257 8.26587 30.7555 8.03386 30.4674C8.01601 30.4444 7.99306 30.4011 7.96757 30.3858C8.00071 30.4062 8.02366 30.4648 7.98032 30.4011C7.95737 30.3679 7.93442 30.3373 7.91403 30.3042C7.88343 30.2558 7.85284 30.2048 7.82734 30.1512C7.81969 30.1385 7.7891 30.062 7.80949 30.1181C7.83244 30.1742 7.79675 30.0798 7.79165 30.0645C7.784 30.0441 7.7789 30.0237 7.7738 30.0008C7.7687 29.983 7.7636 29.9116 7.76615 29.9804C7.77125 30.0543 7.76615 29.9702 7.76615 29.9524C7.76615 29.932 7.76615 29.909 7.76615 29.8886C7.7636 29.8121 7.74321 29.9677 7.7636 29.909C7.7687 29.8937 7.77125 29.8759 7.77635 29.858C7.79165 29.7866 7.78145 29.881 7.76105 29.8861C7.76615 29.8861 7.7891 29.8325 7.79165 29.8274C7.7942 29.8223 7.82224 29.7892 7.81969 29.7866C7.82734 29.807 7.75085 29.8606 7.80949 29.8045C7.82224 29.7917 7.83499 29.7815 7.84774 29.7688C7.90128 29.7153 7.7738 29.8121 7.84264 29.7739C7.87578 29.756 7.90893 29.7356 7.94207 29.7178C8.01601 29.677 7.87323 29.7382 7.93442 29.7204C7.95737 29.7127 7.98032 29.7051 8.00326 29.6974C8.04915 29.6847 8.09505 29.6745 8.14349 29.6643C8.20978 29.6515 8.16134 29.6439 8.13584 29.6643C8.15114 29.6515 8.21233 29.6566 8.23272 29.6566C8.35255 29.649 8.47238 29.6541 8.59221 29.6668C8.60751 29.6694 8.62026 29.6694 8.63556 29.6719C8.63301 29.6719 8.56417 29.6592 8.60751 29.6694C8.63556 29.6745 8.66615 29.6796 8.6942 29.6847C8.76558 29.6974 8.83697 29.7153 8.90581 29.7331C9.05114 29.7713 9.19391 29.8198 9.33414 29.8759C9.2755 29.8529 9.35709 29.8861 9.37493 29.8937C9.41318 29.9116 9.45142 29.9294 9.49221 29.9473C9.57125 29.9855 9.65029 30.0263 9.72677 30.0722C9.87975 30.1589 10.0251 30.2532 10.1679 30.3577C10.2953 30.4521 10.4407 30.5745 10.5783 30.7045C10.7288 30.8447 10.9659 30.8524 11.1163 30.7045C11.2565 30.5643 11.2642 30.3093 11.1137 30.1691Z" fill="white"/>
<path d="M10.5788 30.7047C11.2213 31.2656 11.8663 31.8265 12.5088 32.3849C13.5261 33.2696 14.5434 34.1568 15.5607 35.0415C15.7927 35.2455 16.0272 35.4469 16.2593 35.6509C16.4148 35.786 16.6442 35.8038 16.7972 35.6509C16.9349 35.5132 16.9527 35.248 16.7972 35.1129C16.1547 34.552 15.5097 33.9911 14.8672 33.4327C13.8499 32.548 12.8326 31.6608 11.8153 30.7761C11.5833 30.5721 11.3488 30.3707 11.1168 30.1667C10.9612 30.0316 10.7318 30.0138 10.5788 30.1667C10.4411 30.307 10.4233 30.5696 10.5788 30.7047Z" fill="white"/>
<path d="M14.8391 30.7783C14.1049 30.2021 13.2661 29.733 12.3202 29.6642C11.8179 29.6285 11.2978 29.7304 10.8567 29.9752C10.7573 30.0287 10.6629 30.095 10.5788 30.169C10.4233 30.3041 10.4411 30.5693 10.5788 30.7069C10.7318 30.8599 10.9612 30.8421 11.1168 30.7069C11.1703 30.661 11.0148 30.7783 11.0836 30.7324C11.1193 30.7069 11.155 30.684 11.1932 30.661C11.2544 30.6253 11.3182 30.5948 11.3819 30.5642C11.4559 30.5285 11.3131 30.5897 11.359 30.5718C11.3794 30.5642 11.3998 30.5565 11.4176 30.5489C11.461 30.5336 11.5043 30.5183 11.5476 30.5055C11.5961 30.4902 11.6445 30.4775 11.693 30.4673C11.7312 30.4596 11.8408 30.4163 11.874 30.4341C11.874 30.4341 11.772 30.4443 11.8383 30.4392C11.8536 30.4367 11.8689 30.4367 11.8816 30.4341C11.9122 30.4316 11.9428 30.429 11.9734 30.4265C12.0423 30.4214 12.1111 30.4214 12.1774 30.4214C12.2411 30.4214 12.3074 30.4265 12.3712 30.4316C12.4068 30.4341 12.4935 30.4469 12.4068 30.4341C12.4553 30.4418 12.5012 30.4494 12.5471 30.4571C12.7179 30.4902 12.8862 30.5361 13.0493 30.5948C13.0978 30.6126 13.1462 30.6304 13.1947 30.6508C13.2635 30.6789 13.2176 30.661 13.2049 30.6559C13.238 30.6712 13.2737 30.6865 13.3068 30.7018C13.4139 30.7528 13.5185 30.8064 13.623 30.865C13.8601 30.9976 14.087 31.1506 14.3012 31.3188C14.4618 31.4463 14.6811 31.4769 14.8391 31.3188C14.9717 31.1837 15.0023 30.9058 14.8391 30.7783Z" fill="white"/>
<path d="M19.2986 34.6283C18.7964 34.1949 18.2966 33.764 17.7944 33.3306C16.9938 32.6396 16.1958 31.9487 15.3952 31.2603C15.2091 31.0997 15.0255 30.9416 14.8394 30.781C14.6839 30.6459 14.4544 30.628 14.3015 30.781C14.1638 30.9187 14.1459 31.1838 14.3015 31.319C14.8037 31.7524 15.3034 32.1833 15.8057 32.6167C16.6063 33.3076 17.4043 33.9986 18.2049 34.6869C18.391 34.8476 18.5745 35.0056 18.7607 35.1663C18.9162 35.3014 19.1457 35.3192 19.2986 35.1663C19.4363 35.026 19.4542 34.7609 19.2986 34.6283Z" fill="white"/>
<path d="M46.8821 43.59C45.4033 42.0169 43.8583 40.5024 42.2317 39.0823C40.4878 37.5602 38.6368 36.1044 36.6022 34.9877C35.7277 34.5084 34.8073 34.0877 33.8436 33.8251C32.9512 33.5829 32.0181 33.5268 31.0977 33.4962C28.9739 33.4248 26.8424 33.5778 24.7314 33.8047C22.6815 34.024 20.6368 34.3223 18.6048 34.6716C17.3045 34.8959 16.0067 35.1381 14.7167 35.4135C14.5815 35.4415 14.4438 35.4721 14.3087 35.5002C13.9365 35.5843 13.628 35.7908 13.4113 36.1044C12.9243 36.8081 13.0722 37.9452 13.9033 38.32C14.3087 38.501 14.8237 38.4985 15.2623 38.5393C15.8946 38.6005 16.5269 38.654 17.1591 38.7075C18.7679 38.8452 20.3767 38.9727 21.9855 39.1002C23.0818 39.1869 24.1807 39.271 25.277 39.3551C25.3331 39.3602 25.3866 39.3628 25.4427 39.3679C25.6467 39.3832 25.8226 39.1818 25.8226 38.988C25.8226 38.7687 25.6492 38.6234 25.4427 38.6081C24.6778 38.5495 23.9104 38.4908 23.1455 38.4296C21.5929 38.3073 20.0376 38.1849 18.4849 38.0574C17.2382 37.9554 15.9889 37.8585 14.7421 37.726C14.6631 37.7183 14.5841 37.7081 14.505 37.7005C14.477 37.6979 14.4489 37.6928 14.4234 37.6903C14.3521 37.6826 14.528 37.7107 14.477 37.6979C14.4413 37.6903 14.4056 37.6877 14.3699 37.6801C14.3215 37.6699 14.273 37.6546 14.2271 37.6367C14.2985 37.6622 14.2016 37.6214 14.1761 37.6087C14.1583 37.5985 14.143 37.5857 14.1252 37.5755C14.0436 37.5296 14.1608 37.6087 14.1201 37.573C14.0844 37.5398 14.0512 37.5067 14.0181 37.471C13.9824 37.4328 14.0538 37.5245 14.0257 37.4786C14.013 37.4583 14.0002 37.4379 13.9875 37.4175C13.9671 37.3843 13.9518 37.3512 13.9365 37.3155C13.9773 37.4022 13.9288 37.2823 13.9212 37.2568C13.9135 37.2339 13.8906 37.1039 13.8957 37.1498C13.9008 37.1982 13.8906 37.0707 13.8906 37.0529C13.8906 37.0121 13.8931 36.9738 13.8931 36.933C13.8931 36.9126 13.8957 36.8922 13.8982 36.8744C13.888 36.9611 13.8931 36.905 13.8982 36.8871C13.911 36.8387 13.9186 36.7903 13.9339 36.7418C13.9416 36.7189 13.9518 36.6959 13.9594 36.6704C13.9773 36.6169 13.9314 36.7265 13.9543 36.6781C13.9747 36.6373 13.9926 36.599 14.0155 36.5583C14.0359 36.5251 14.0589 36.492 14.0818 36.4588C14.0283 36.5302 14.1201 36.4231 14.1404 36.4027C14.1557 36.39 14.171 36.3772 14.1838 36.3619C14.2501 36.2956 14.1404 36.3874 14.1889 36.3568C14.2271 36.3313 14.2679 36.3109 14.3062 36.2854C14.3189 36.2778 14.3725 36.2574 14.3011 36.2854C14.3215 36.2778 14.3393 36.2701 14.3597 36.2651C14.3954 36.2549 14.4285 36.2447 14.4642 36.237C14.5127 36.2268 14.5586 36.2166 14.607 36.2064C15.6778 35.9744 16.7538 35.7653 17.8297 35.5716C19.7062 35.2325 21.6133 34.9316 23.4617 34.7047C25.5549 34.4472 27.6659 34.256 29.777 34.2356C30.7229 34.2279 31.6688 34.2534 32.6096 34.3503C32.6606 34.3554 32.7116 34.3605 32.7651 34.3682C32.7065 34.3605 32.8263 34.3758 32.7651 34.3682C32.7931 34.3733 32.8212 34.3758 32.8518 34.3809C32.9563 34.3962 33.0583 34.4166 33.1628 34.437C33.377 34.4803 33.5886 34.5339 33.7977 34.5951C34.2362 34.7226 34.6926 34.8985 35.0623 35.0617C37.0407 35.9438 38.8331 37.2415 40.5005 38.6056C42.2164 40.0104 43.8354 41.5325 45.3829 43.1209C45.7042 43.4498 46.0254 43.7837 46.3416 44.1203C46.6807 44.4823 47.2186 43.9444 46.8821 43.59Z" fill="white"/>
</g>
<defs>
<clipPath id="clip0_33_260">
<rect width="54" height="54" fill="white"/>
</clipPath>
</defs>
</svg>
