<svg width="120" height="44" viewBox="0 0 120 44" fill="none" xmlns="http://www.w3.org/2000/svg">
<path fill-rule="evenodd" clip-rule="evenodd" d="M8.15303 0L6.1135 5.58667H34.3768L36.4163 0H8.15303ZM5.0931 8.37873L3.05357 13.9641H31.3169L33.3564 8.37873H5.0931ZM2.03953 16.7575L0 22.3429H28.2633L30.3016 16.7575H2.03953Z" fill="#009FDF"/>
<mask id="mask0_1_385" style="mask-type:luminance" maskUnits="userSpaceOnUse" x="42" y="8" width="78" height="35">
<path d="M42.4043 42.7079H119.772V8.48608H42.4043V42.7079Z" fill="#0A2973"/>
</mask>
<g mask="url(#mask0_1_385)">
<path fill-rule="evenodd" clip-rule="evenodd" d="M60.0863 24.4717V24.5896C61.378 25.0637 62.6118 25.8927 63.2582 26.4251C65.2555 28.0831 66.1371 30.2735 66.1371 33.1155C66.1371 37.7942 63.6695 41.1685 59.6159 42.2346C58.3821 42.5895 57.0905 42.7087 54.6807 42.7087H42.4043V8.48608H53.2721C55.5045 8.48608 57.0314 8.60396 58.3821 8.95888C62.3188 10.0249 64.9033 12.749 64.9033 17.0702C64.9033 19.3798 64.0808 21.3345 62.73 22.6363C62.1427 23.2282 61.3201 23.9394 60.0863 24.4717ZM49.2185 28.0831V37.0831H53.9186C55.3272 37.0831 56.6201 36.9652 57.5609 36.0766C58.5004 35.188 58.9116 34.0637 58.9116 32.5831C58.9116 31.4588 58.6173 30.3927 58.03 29.6233C57.0314 28.3798 55.7976 28.0831 53.6834 28.0831H49.2185ZM49.1594 22.1622H52.9778C54.1525 22.1622 54.7398 22.1622 55.3272 21.9847C56.9144 21.5106 57.913 20.0909 57.913 18.1363C57.913 15.828 56.8553 14.8202 55.3272 14.3475C54.6807 14.17 54.0355 14.1104 52.7426 14.1104H49.1594V22.1622ZM76.3585 42.7087V14.2283H66.5484V8.48608H93.8066L91.8685 14.2283H83.1727V42.7087H76.3585ZM95.9208 42.7087V8.48608H118.01L116.072 14.2283H102.677V21.8073H108.141C112.546 21.8073 114.838 22.8733 116.424 24.2347C117.658 25.3008 119.772 27.6686 119.772 32.3474C119.772 36.9652 117.599 39.5105 115.777 40.8136C113.663 42.2929 111.431 42.7087 106.907 42.7087H95.9208ZM102.677 36.9652H107.788C109.727 36.9652 110.901 36.4911 111.724 35.4251C112.135 34.8927 112.722 33.9445 112.722 32.1686C112.722 30.3927 112.135 29.1492 110.96 28.2606C110.256 27.7282 109.315 27.4329 107.729 27.4329H102.677V36.9652Z" fill="#0A2973"/>
</g>
</svg>
