<svg width="140" height="27" viewBox="0 0 140 27" fill="none" xmlns="http://www.w3.org/2000/svg">
<g clip-path="url(#clip0_1_409)">
<mask id="mask0_1_409" style="mask-type:luminance" maskUnits="userSpaceOnUse" x="0" y="0" width="140" height="27">
<path d="M140 0H0V26.3366H140V0Z" fill="white"/>
</mask>
<g mask="url(#mask0_1_409)">
<path d="M74.7441 21.9195V4.41724H85.6174V8.48238H79.278V21.9195H74.7441Z" fill="#E30613"/>
<path d="M99.2969 21.9196V15.0648H92.5614V21.9196H88.0274V4.4173H92.5614V10.949H99.2969V4.4173H103.831V21.9196H99.2969Z" fill="#E30613"/>
<path d="M130.142 21.9196V8.48245H124.847V4.4173H140V8.48245H134.678V21.9196H130.142Z" fill="#E30613"/>
<path d="M118.175 21.9172V11.9448L110.958 21.9172H107.167V4.41968H111.701V14.2883L118.797 4.41968H122.712V21.9172H118.175Z" fill="#E30613"/>
<path d="M48.6888 21.9196V11.518L44.162 17.013L39.6352 11.518V21.9196H35.1013V4.4173H39.5759L44.162 10.4354L48.7481 4.4173H53.2226V21.9196H48.6888Z" fill="#E30613"/>
<path d="M61.8301 15.7639H66.0437L63.9369 10.2761L61.8301 15.7639ZM68.4068 21.9171L67.4578 19.4648H60.409L59.4599 21.9171H54.9025L61.8753 4.41714H66.0675L73.0427 21.9171H68.4068Z" fill="#E30613"/>
<path d="M-0.0049057 7.97357C-0.000515756 5.8598 0.827844 3.83392 2.2988 2.33948C3.76976 0.845041 5.76346 0.00382228 7.84338 0H25.9624V4.05308H7.84814C6.82612 4.05752 5.84719 4.47192 5.12429 5.20613C4.40141 5.94032 3.99304 6.93493 3.98805 7.97357L3.96432 14.7778C3.88162 15.6495 3.51715 16.4689 2.92782 17.108C2.3385 17.747 1.55752 18.1696 0.70685 18.3101L-0.0049057 18.4209V7.97357Z" fill="#E30613"/>
<path d="M-0.00389099 26.3366V22.2834H18.115C19.1373 22.2784 20.1162 21.8634 20.8391 21.1289C21.5618 20.3943 21.9702 19.3994 21.9752 18.3607V11.9036C21.9801 10.9669 22.3127 10.0624 22.9133 9.35172C23.5139 8.64108 24.3435 8.17054 25.2539 8.02415L25.9657 7.91564V18.3607C25.9613 20.4747 25.1331 22.5008 23.6621 23.9956C22.1912 25.4904 20.1976 26.3321 18.1174 26.3366H-0.00389099Z" fill="#E30613"/>
<path d="M15.3452 18.4354V13.1961L12.9822 16.0629L10.6215 13.1961V18.4354H7.49216V8.12549H10.4554L12.9822 11.4408L15.5089 8.12549H18.4722V18.4354H15.3452Z" fill="#E30613"/>
</g>
</g>
<defs>
<clipPath id="clip0_1_409">
<rect width="140" height="26.3366" fill="white"/>
</clipPath>
</defs>
</svg>
